<svg xmlns="http://www.w3.org/2000/svg" width="30.437" height="46.254" viewBox="0 0 30.437 46.254">
  <g id="blood" transform="translate(-81.068)">
    <g id="Group_9768" data-name="Group 9768" transform="translate(81.068 16.263)">
      <g id="Group_9767" data-name="Group 9767" transform="translate(0)">
        <path id="Path_3003" data-name="Path 3003" d="M93.332,167.28l-.557-.568-.557.568c-.457.468-11.149,11.434-11.149,17.716a11.706,11.706,0,1,0,23.413,0C104.481,178.714,93.789,167.748,93.332,167.28Zm-.557,27.861A10.157,10.157,0,0,1,82.629,185c0-4.891,7.947-13.7,10.146-16.039C94.973,171.3,102.92,180.1,102.92,185A10.157,10.157,0,0,1,92.774,195.141Z" transform="translate(-81.068 -166.712)" fill="#5b1c26"/>
      </g>
    </g>
    <g id="Group_9770" data-name="Group 9770" transform="translate(84.97 34.547)">
      <g id="Group_9769" data-name="Group 9769">
        <path id="Path_3004" data-name="Path 3004" d="M122.629,354.136h-1.561a7.032,7.032,0,0,0,7.024,7.024V359.6A5.47,5.47,0,0,1,122.629,354.136Z" transform="translate(-121.068 -354.136)" fill="#5b1c26"/>
      </g>
    </g>
    <g id="Group_9772" data-name="Group 9772" transform="translate(97.457 2.074)">
      <g id="Group_9771" data-name="Group 9771" transform="translate(0)">
        <path id="Path_3005" data-name="Path 3005" d="M256.694,21.972l-.6-.716-.6.717c-1.071,1.285-6.424,7.839-6.424,10.685a7.024,7.024,0,0,0,14.048,0C263.116,30.445,259.655,25.519,256.694,21.972Zm-.6,16.149a5.47,5.47,0,0,1-5.463-5.463c0-1.143,1.873-4.543,5.463-8.959,3.553,4.37,5.463,7.84,5.463,8.959A5.47,5.47,0,0,1,256.092,38.121Z" transform="translate(-249.068 -21.256)" fill="#5b1c26"/>
      </g>
    </g>
    <g id="Group_9774" data-name="Group 9774" transform="translate(86.529)">
      <g id="Group_9773" data-name="Group 9773" transform="translate(0)">
        <path id="Path_3006" data-name="Path 3006" d="M144.83,6.373A22.364,22.364,0,0,0,141.588.861L140.956,0l-.631.858a22.111,22.111,0,0,0-3.25,5.515l-.023.1v.1a3.905,3.905,0,0,0,7.806.021V6.483Zm-3.874,2.42a2.361,2.361,0,0,1-2.334-2.157,19.994,19.994,0,0,1,2.334-3.973,20.36,20.36,0,0,1,2.332,4A2.332,2.332,0,0,1,140.956,8.793Z" transform="translate(-137.052)" fill="#5b1c26"/>
      </g>
    </g>
  </g>
</svg>
