<svg xmlns="http://www.w3.org/2000/svg" width="53.141" height="39.999" viewBox="0 0 53.141 39.999">
  <g id="dumbbell" transform="translate(0 -63.352)">
    <path id="Path_3007" data-name="Path 3007" d="M50.965,68.4H48.472V66.33a2.982,2.982,0,0,0-2.978-2.978H43.118A2.982,2.982,0,0,0,40.14,66.33v8.527H36.159V72.568a3.01,3.01,0,0,0-4.764-2.45,3.012,3.012,0,0,0-5.355-.163,3.006,3.006,0,0,0-4.347.726,3.011,3.011,0,0,0-4.972,2.287v1.89H13v-2.2a.778.778,0,1,0-1.556,0V90.733a1.424,1.424,0,0,1-1.422,1.422H7.648a1.424,1.424,0,0,1-1.422-1.422V66.33a1.424,1.424,0,0,1,1.422-1.422h2.376a1.424,1.424,0,0,1,1.422,1.422v3.016a.778.778,0,1,0,1.556,0V66.33a2.982,2.982,0,0,0-2.978-2.978H7.648A2.982,2.982,0,0,0,4.67,66.33V68.4H2.177A2.179,2.179,0,0,0,0,70.579V86.485a2.179,2.179,0,0,0,2.177,2.177H4.67v2.071a2.982,2.982,0,0,0,2.978,2.978h2.376A2.982,2.982,0,0,0,13,90.733V82.206h2.666v1.42a3.166,3.166,0,0,0,.719,2.007L18.8,88.57v14a.778.778,0,1,0,1.556,0V88.291a.778.778,0,0,0-.177-.494l-2.593-3.153a1.606,1.606,0,0,1-.365-1.018v-1.42l14.712.09a.778.778,0,1,0,0-1.556H28.4a1.324,1.324,0,1,1,0-2.649h6.689a.834.834,0,0,1,.834.833v4.7a1.606,1.606,0,0,1-.365,1.018L32.96,87.8a.778.778,0,0,0-.177.494v2.052a.778.778,0,1,0,1.556,0V88.57l2.416-2.937a3.167,3.167,0,0,0,.719-2.006v-1.42h2.666v8.527a2.982,2.982,0,0,0,2.978,2.978h2.376a2.982,2.982,0,0,0,2.978-2.978V88.662h2.493a2.179,2.179,0,0,0,2.177-2.177V70.579A2.179,2.179,0,0,0,50.965,68.4ZM2.177,87.106a.622.622,0,0,1-.621-.621V70.579a.622.622,0,0,1,.621-.621H4.67V87.106Zm30.968-16A1.459,1.459,0,0,1,34.6,72.568v2.9a1.456,1.456,0,0,1-.472,1.072H32.16a1.456,1.456,0,0,1-.472-1.072v-2.9A1.459,1.459,0,0,1,33.145,71.111Zm-5.928.3a1.457,1.457,0,1,1,2.915,0v4.05a1.456,1.456,0,0,1-.472,1.072H28.4a2.876,2.876,0,0,0-.625.069,1.449,1.449,0,0,1-.553-1.141v-4.05Zm-4.471.927a1.457,1.457,0,0,1,2.915,0v3.123a1.457,1.457,0,1,1-2.915,0Zm-4.471.626a1.457,1.457,0,0,1,2.915,0v2.5a1.457,1.457,0,1,1-2.915,0ZM13,76.413h3.873a3.011,3.011,0,0,0,5.095,1.069,3,3,0,0,0,3.96.448,2.875,2.875,0,0,0-.135,2.72H13ZM37.474,80.65V78.925A2.393,2.393,0,0,0,35.9,76.68q.058-.131.1-.267H40.14V80.65Zm14.112,5.835a.622.622,0,0,1-.621.621H48.472V84.858a.778.778,0,0,0-1.556,0v5.875a1.424,1.424,0,0,1-1.422,1.422H43.118A1.424,1.424,0,0,1,41.7,90.733V66.33a1.424,1.424,0,0,1,1.422-1.422h2.376a1.424,1.424,0,0,1,1.422,1.422V81.543a.778.778,0,0,0,1.556,0V69.958h2.493a.622.622,0,0,1,.621.621Z" transform="translate(0 0)" fill="#5b1c26"/>
    <path id="Path_3008" data-name="Path 3008" d="M316.842,348.04a.778.778,0,0,0-.778.778v8.915a.778.778,0,1,0,1.556,0v-8.915A.778.778,0,0,0,316.842,348.04Z" transform="translate(-283.281 -255.16)" fill="#5b1c26"/>
  </g>
</svg>
