<svg xmlns="http://www.w3.org/2000/svg" xmlns:xlink="http://www.w3.org/1999/xlink" width="46.289" height="46.289" viewBox="0 0 46.289 46.289"><defs><style>.a{fill:url(#a);}.b{fill:url(#b);}.c{fill:url(#c);}.d{fill:url(#d);}.e{fill:#fff;}</style><linearGradient id="a" x1="0.332" y1="0.141" x2="0.585" y2="0.682" gradientUnits="objectBoundingBox"><stop offset="0" stop-color="#3457a0"/><stop offset="1" stop-color="#3b5998"/></linearGradient><linearGradient id="b" x1="0.714" y1="0.647" x2="-0.271" y2="-0.03" gradientUnits="objectBoundingBox"><stop offset="0" stop-color="#3457a0" stop-opacity="0"/><stop offset="1" stop-color="#1f3f77"/></linearGradient><linearGradient id="c" x1="0.5" y1="0.177" x2="0.5" y2="0.855" xlink:href="#b"/><linearGradient id="d" x1="1.26" y1="0.791" x2="0.043" y2="0.371" gradientUnits="objectBoundingBox"><stop offset="0" stop-color="#3457a0" stop-opacity="0"/><stop offset="0.325" stop-color="#2a4c8d" stop-opacity="0.325"/><stop offset="0.705" stop-color="#22427d" stop-opacity="0.706"/><stop offset="1" stop-color="#1f3f77"/></linearGradient></defs><g transform="translate(0)"><path class="a" d="M38.009,45.5a139.811,139.811,0,0,1-29.73,0A8.428,8.428,0,0,1,.792,38.008a139.808,139.808,0,0,1,0-29.729A8.428,8.428,0,0,1,8.279.792a139.808,139.808,0,0,1,29.73,0A8.428,8.428,0,0,1,45.5,8.279a139.808,139.808,0,0,1,0,29.729A8.428,8.428,0,0,1,38.009,45.5Zm0,0" transform="translate(0 0.001)"/><path class="b" d="M69.206,36.181a7.479,7.479,0,0,0-6.644-6.644,124.111,124.111,0,0,0-26.381,0,7.48,7.48,0,0,0-6.644,6.644,124.107,124.107,0,0,0,0,26.381,7.479,7.479,0,0,0,6.644,6.644,124.061,124.061,0,0,0,26.381,0,7.479,7.479,0,0,0,6.644-6.644,124.06,124.06,0,0,0,0-26.381Zm0,0" transform="translate(-26.227 -26.227)"/><path class="c" d="M7.672,409.8q.048.48.1.96a8.429,8.429,0,0,0,7.487,7.487,139.811,139.811,0,0,0,29.73,0,8.428,8.428,0,0,0,7.487-7.487q.051-.48.1-.96Zm0,0" transform="translate(-6.978 -372.756)"/><path class="d" d="M231.209,85.27a7.3,7.3,0,0,0-7.3,7.3v5.454h-3.93v6.753l3.93,3.52v15.547a140.112,140.112,0,0,0,14.192-.79,8.428,8.428,0,0,0,7.487-7.487,139.786,139.786,0,0,0,.6-22.123l-8.177-8.177Zm0,0" transform="translate(-200.089 -77.56)"/><path class="e" d="M223.906,123.847q4.046-.02,8.089-.274V104.78h5.367l.648-6.753H232V93.739a1.715,1.715,0,0,1,1.715-1.715h4.3V85.27h-6.8a7.3,7.3,0,0,0-7.3,7.3v5.454h-3.93v6.753h3.93Zm0,0" transform="translate(-200.089 -77.561)"/></g></svg>