<svg xmlns="http://www.w3.org/2000/svg" width="39.774" height="42.458" viewBox="0 0 39.774 42.458">
  <g id="gender" transform="translate(-16.179)">
    <g id="Group_9766" data-name="Group 9766" transform="translate(16.179)">
      <path id="Path_3002" data-name="Path 3002" d="M48.333,0V2.6h2.932l-5.72,5.424a11.135,11.135,0,0,0-17.728,2.405c-.163-.007-.327-.011-.491-.011a11.146,11.146,0,0,0-1.3,22.217v3.454H22.134v2.6h3.892v3.77h2.6v-3.77h4.061v-2.6H28.625V32.634a11.168,11.168,0,0,0,8.459-5.69c.163.007.326.011.491.011a11.142,11.142,0,0,0,9.565-16.864L53.354,4.2V7.43h2.6V0ZM27.326,30.111a8.547,8.547,0,0,1-.547-17.076A11.153,11.153,0,0,0,34.32,26.47,8.543,8.543,0,0,1,27.326,30.111ZM35.489,24.1a8.55,8.55,0,0,1-6.077-10.823A8.55,8.55,0,0,1,35.489,24.1Zm2.633.24A11.153,11.153,0,0,0,30.581,10.9a8.546,8.546,0,1,1,7.541,13.435Z" transform="translate(-16.179)" fill="#5b1c26"/>
    </g>
  </g>
</svg>
