<svg xmlns="http://www.w3.org/2000/svg" width="25.37" height="40.057" viewBox="0 0 25.37 40.057">
  <g id="hourglass" transform="translate(-93.867)">
    <g id="Group_9753" data-name="Group 9753" transform="translate(93.867)">
      <g id="Group_9752" data-name="Group 9752">
        <path id="Path_2987" data-name="Path 2987" d="M117.234,0H95.87a2,2,0,0,0,0,4.006h21.364a2,2,0,1,0,0-4.006Zm0,2.67H95.87a.668.668,0,1,1,0-1.335h21.364a.668.668,0,1,1,0,1.335Z" transform="translate(-93.867)" fill="#5b1c26"/>
      </g>
    </g>
    <g id="Group_9755" data-name="Group 9755" transform="translate(93.867 36.052)">
      <g id="Group_9754" data-name="Group 9754">
        <path id="Path_2988" data-name="Path 2988" d="M117.234,460.8H95.87a2,2,0,1,0,0,4.006h21.364a2,2,0,1,0,0-4.006Zm0,2.67H95.87a.668.668,0,1,1,0-1.335h21.364a.668.668,0,1,1,0,1.335Z" transform="translate(-93.867 -460.8)" fill="#5b1c26"/>
      </g>
    </g>
    <g id="Group_9757" data-name="Group 9757" transform="translate(96.537 2.671)">
      <g id="Group_9756" data-name="Group 9756" transform="translate(0)">
        <path id="Path_2989" data-name="Path 2989" d="M142.772,49.014a17.83,17.83,0,0,0,5.257-12.691V34.8a.667.667,0,0,0-.668-.668H128.668A.667.667,0,0,0,128,34.8v1.521a17.831,17.831,0,0,0,5.256,12.691l.671.671a2.556,2.556,0,0,1,0,3.615l-.671.671A17.829,17.829,0,0,0,128,66.661v1.521a.667.667,0,0,0,.668.668h18.693a.667.667,0,0,0,.668-.668V66.661a17.83,17.83,0,0,0-5.257-12.691L142.1,53.3a2.556,2.556,0,0,1,0-3.615Zm-1.615-.273a3.891,3.891,0,0,0,0,5.5l.671.671a16.5,16.5,0,0,1,4.866,11.747v.854H129.335v-.854A16.505,16.505,0,0,1,134.2,54.914l.671-.671a3.89,3.89,0,0,0,0-5.5l-.671-.671a16.5,16.5,0,0,1-4.866-11.747v-.854h17.358v.854a16.5,16.5,0,0,1-4.866,11.747Z" transform="translate(-128 -34.134)" fill="#5b1c26"/>
      </g>
    </g>
    <g id="Group_9759" data-name="Group 9759" transform="translate(101.211 8.947)">
      <g id="Group_9758" data-name="Group 9758" transform="translate(0)">
        <path id="Path_2990" data-name="Path 2990" d="M198.724,116.662a.95.95,0,0,0-.969-.565c-3.469,0-5.015-.743-5.627-1.186a2.854,2.854,0,0,0-2.626-.387,2.632,2.632,0,0,0-1.688,1.813,2.179,2.179,0,0,0-.071.367.7.7,0,0,0,.083.389,14.842,14.842,0,0,0,2.386,3.317l.67.671a5.187,5.187,0,0,1,1.531,3.7.668.668,0,0,0,1.335,0,5.192,5.192,0,0,1,1.53-3.7l.672-.672c.165-.164.38-.367.616-.589C198.293,118.2,199.019,117.408,198.724,116.662Zm-3.072,2.185c-.247.233-.473.445-.645.618l-.672.672a6.559,6.559,0,0,0-1.254,1.748,6.556,6.556,0,0,0-1.254-1.748l-.67-.671a12.8,12.8,0,0,1-2.044-2.813,1.3,1.3,0,0,1,.835-.871,1.519,1.519,0,0,1,1.4.21c.851.616,2.528,1.341,5.74,1.431C196.672,117.888,196.024,118.5,195.651,118.848Z" transform="translate(-187.741 -114.362)" fill="#5b1c26"/>
      </g>
    </g>
    <g id="Group_9761" data-name="Group 9761" transform="translate(99.252 28.04)">
      <g id="Group_9760" data-name="Group 9760" transform="translate(0)">
        <path id="Path_2991" data-name="Path 2991" d="M177.293,364.357a5.786,5.786,0,0,0-2.04-4.1c-.135-.141-.277-.287-.422-.442a4.467,4.467,0,0,0-3.251-1.41h-3.172a4.469,4.469,0,0,0-3.251,1.41c-.145.155-.286.3-.421.441a5.783,5.783,0,0,0-2.04,4.106.667.667,0,0,0,.666.719h13.264a.668.668,0,0,0,.666-.72Zm-13.17-.616a4.641,4.641,0,0,1,1.575-2.562c.14-.146.286-.3.435-.457a3.125,3.125,0,0,1,2.275-.987h3.172a3.13,3.13,0,0,1,2.276.986c.15.161.3.312.437.458a4.647,4.647,0,0,1,1.574,2.562Z" transform="translate(-162.695 -358.4)" fill="#5b1c26"/>
      </g>
    </g>
    <g id="Group_9763" data-name="Group 9763" transform="translate(105.864 21.364)">
      <g id="Group_9762" data-name="Group 9762" transform="translate(0)">
        <path id="Path_2992" data-name="Path 2992" d="M247.879,273.067a.667.667,0,0,0-.668.668v.668a.668.668,0,0,0,1.335,0v-.668A.667.667,0,0,0,247.879,273.067Z" transform="translate(-247.211 -273.067)" fill="#5b1c26"/>
      </g>
    </g>
    <g id="Group_9765" data-name="Group 9765" transform="translate(105.864 24.702)">
      <g id="Group_9764" data-name="Group 9764" transform="translate(0)">
        <path id="Path_2993" data-name="Path 2993" d="M247.879,315.733a.667.667,0,0,0-.668.668v.668a.668.668,0,0,0,1.335,0V316.4A.667.667,0,0,0,247.879,315.733Z" transform="translate(-247.211 -315.733)" fill="#5b1c26"/>
      </g>
    </g>
  </g>
</svg>
