<svg xmlns="http://www.w3.org/2000/svg" xmlns:xlink="http://www.w3.org/1999/xlink" width="46.289" height="46.289" viewBox="0 0 46.289 46.289"><defs><style>.a{fill:url(#a);}.b{fill:url(#b);}.c{fill:url(#c);}.d{fill:url(#d);}.e{fill:url(#e);}.f{fill:url(#f);}.g{fill:url(#g);}.h{fill:url(#h);}.i{fill:#fff;}</style><radialGradient id="a" cx="0.205" cy="0.874" r="1.103" gradientTransform="translate(0)" gradientUnits="objectBoundingBox"><stop offset="0" stop-color="#fae100"/><stop offset="0.054" stop-color="#fadc04"/><stop offset="0.117" stop-color="#fbce0e"/><stop offset="0.183" stop-color="#fcb720"/><stop offset="0.251" stop-color="#fe9838"/><stop offset="0.305" stop-color="#ff7950"/><stop offset="0.492" stop-color="#ff1c74"/><stop offset="1" stop-color="#6c1cd1"/></radialGradient><linearGradient id="b" x1="0.369" y1="0.426" x2="-1.54" y2="-0.648" gradientUnits="objectBoundingBox"><stop offset="0" stop-color="#a1b5d8" stop-opacity="0"/><stop offset="0.309" stop-color="#90a2bd" stop-opacity="0.31"/><stop offset="0.755" stop-color="#7c8b9c" stop-opacity="0.757"/><stop offset="1" stop-color="#748290"/></linearGradient><linearGradient id="c" x1="0.5" y1="0.413" x2="0.5" y2="1.193" gradientUnits="objectBoundingBox"><stop offset="0" stop-color="#fae100" stop-opacity="0"/><stop offset="0.307" stop-color="#fca800" stop-opacity="0.306"/><stop offset="0.627" stop-color="#fe7300" stop-opacity="0.627"/><stop offset="0.868" stop-color="#ff5200" stop-opacity="0.867"/><stop offset="1" stop-color="#ff4500"/></linearGradient><linearGradient id="d" x1="0.316" y1="0.311" x2="0.012" y2="0.005" gradientUnits="objectBoundingBox"><stop offset="0" stop-color="#833ab4" stop-opacity="0"/><stop offset="1" stop-color="#833ab4"/></linearGradient><linearGradient id="e" x1="0.582" y1="0.887" x2="0.418" y2="0.113" xlink:href="#d"/><linearGradient id="f" x1="0.605" y1="0.605" x2="-0.16" y2="-0.16" xlink:href="#d"/><linearGradient id="g" x1="0.376" y1="0.332" x2="-0.072" y2="-0.063" xlink:href="#d"/><linearGradient id="h" x1="0.816" y1="0.182" x2="0.172" y2="0.835" gradientUnits="objectBoundingBox"><stop offset="0" stop-color="#833ab4"/><stop offset="0.092" stop-color="#9c3495"/><stop offset="0.293" stop-color="#dc2546"/><stop offset="0.392" stop-color="#fd1d1d"/><stop offset="0.559" stop-color="#fc6831"/><stop offset="0.689" stop-color="#fc9b40"/><stop offset="0.752" stop-color="#fcaf45"/><stop offset="0.781" stop-color="#fdb750"/><stop offset="0.866" stop-color="#fecb6a"/><stop offset="0.942" stop-color="#ffd87a"/><stop offset="1" stop-color="#ffdc80"/></linearGradient></defs><path class="a" d="M45.5,8.279A8.428,8.428,0,0,0,38.009.792a139.808,139.808,0,0,0-29.73,0A8.428,8.428,0,0,0,.792,8.279a139.808,139.808,0,0,0,0,29.729A8.428,8.428,0,0,0,8.279,45.5a139.812,139.812,0,0,0,29.73,0A8.428,8.428,0,0,0,45.5,38.009a139.808,139.808,0,0,0,0-29.729Zm0,0" transform="translate(0.001 0)"/><path class="b" d="M69.206,36.181a7.479,7.479,0,0,0-6.644-6.644,124.111,124.111,0,0,0-26.381,0,7.48,7.48,0,0,0-6.644,6.644,124.107,124.107,0,0,0,0,26.381,7.479,7.479,0,0,0,6.644,6.644,124.061,124.061,0,0,0,26.381,0,7.479,7.479,0,0,0,6.644-6.644,124.06,124.06,0,0,0,0-26.381Zm0,0" transform="translate(-26.227 -26.227)"/><path class="c" d="M7.672,409.8q.048.48.1.96a8.429,8.429,0,0,0,7.487,7.487,139.811,139.811,0,0,0,29.73,0,8.428,8.428,0,0,0,7.487-7.487q.051-.48.1-.96Zm0,0" transform="translate(-6.978 -372.756)"/><path class="d" d="M131.989,126.528a139.927,139.927,0,0,0,.788-15.975L122.2,99.973a7.578,7.578,0,0,0-5.521-2.532c-4.666-.168-9.346-.16-14.012,0-3.876.133-6.586,2.738-7.281,6.567-.123.676-.2,1.361-.292,2.042v11.224c.053.364.132.726.156,1.092a8.16,8.16,0,0,0,2.645,5.673L108.658,134.8a139.938,139.938,0,0,0,15.845-.789,8.428,8.428,0,0,0,7.487-7.487Zm0,0" transform="translate(-86.493 -88.519)"/><path class="e" d="M160.335,153.314a8.428,8.428,0,0,1-7.487,7.487A140.013,140.013,0,0,1,137,161.59L126.254,150.84a7.538,7.538,0,0,0,4.756,1.826c4.665.175,9.347.171,14.012,0a7.5,7.5,0,0,0,7.4-7.495c.141-4.48.141-8.972,0-13.452a7.81,7.81,0,0,0-1.876-4.955l10.574,10.574a140.18,140.18,0,0,1-.788,15.975Zm0,0" transform="translate(-114.839 -115.305)"/><path class="f" d="M186.868,176.394a7.413,7.413,0,1,0-10.474,10.474l17.154,17.154q1.362-.119,2.723-.264a8.428,8.428,0,0,0,7.487-7.487q.145-1.361.264-2.723Zm0,0" transform="translate(-158.262 -158.262)"/><path class="g" d="M340.257,165.244l-13.805-13.805a1.762,1.762,0,1,0-2.469,2.469l16.027,16.028Q340.173,167.591,340.257,165.244Zm0,0" transform="translate(-294.058 -137.114)"/><path class="h" d="M95.09,106.049c.1-.681.17-1.366.292-2.042.695-3.829,3.405-6.433,7.281-6.567,4.666-.16,9.347-.169,14.012,0a7.5,7.5,0,0,1,7.4,7.495q.21,6.721,0,13.452a7.5,7.5,0,0,1-7.4,7.495c-4.666.168-9.347.173-14.012,0-4.219-.159-7.135-3.289-7.417-7.515-.024-.366-.1-.728-.156-1.092V106.049Zm14.551,17.332c2.135,0,4.272.064,6.4-.015,3.343-.124,5.4-2.119,5.478-5.459q.145-6.243,0-12.492a5.177,5.177,0,0,0-5.478-5.452q-6.363-.135-12.73,0c-3.316.07-5.379,2.07-5.469,5.373q-.172,6.322,0,12.651c.09,3.3,2.152,5.257,5.469,5.38,2.105.078,4.216.015,6.325.015Zm0,0" transform="translate(-86.493 -88.519)"/><g transform="translate(8.597 8.798)"><path class="i" d="M95.09,106.049c.1-.681.17-1.366.292-2.042.695-3.829,3.405-6.433,7.281-6.567,4.666-.16,9.347-.169,14.012,0a7.5,7.5,0,0,1,7.4,7.495q.21,6.721,0,13.452a7.5,7.5,0,0,1-7.4,7.495c-4.666.168-9.347.173-14.012,0-4.219-.159-7.135-3.289-7.417-7.515-.024-.366-.1-.728-.156-1.092V106.049Zm14.551,17.332c2.135,0,4.272.064,6.4-.015,3.343-.124,5.4-2.119,5.478-5.459q.145-6.243,0-12.492a5.177,5.177,0,0,0-5.478-5.452q-6.363-.135-12.73,0c-3.316.07-5.379,2.07-5.469,5.373q-.172,6.322,0,12.651c.09,3.3,2.152,5.257,5.469,5.38,2.105.078,4.216.015,6.325.015Zm0,0" transform="translate(-95.09 -97.317)"/><path class="i" d="M181.406,174a7.414,7.414,0,1,0,7.414,7.414A7.414,7.414,0,0,0,181.406,174Zm0,12.275a4.862,4.862,0,1,1,4.861-4.861A4.861,4.861,0,0,1,181.406,186.271Zm0,0" transform="translate(-166.859 -167.064)"/><path class="i" d="M326.813,152.506a1.764,1.764,0,1,1-1.764-1.764A1.764,1.764,0,0,1,326.813,152.506Zm0,0" transform="translate(-302.655 -145.912)"/></g></svg>