<svg xmlns="http://www.w3.org/2000/svg" width="31.045" height="31.045" viewBox="0 0 31.045 31.045">
  <path id="mars" d="M31.028,1.127a1.281,1.281,0,0,0-.08-.32.039.039,0,0,1,0-.009v0A1.316,1.316,0,0,0,30.77.5c-.017-.021-.034-.042-.052-.062a1.32,1.32,0,0,0-.247-.223l-.008,0a1.274,1.274,0,0,0-.294-.14c-.026-.009-.051-.017-.078-.024A1.289,1.289,0,0,0,29.751,0H20.7a1.294,1.294,0,1,0,0,2.587h5.931l-7.72,7.72a11.649,11.649,0,1,0,1.829,1.83l7.721-7.721v5.932a1.294,1.294,0,1,0,2.587,0V1.294c0-.027-.006-.053-.008-.08s-.005-.058-.009-.087ZM11.642,28.458A9.06,9.06,0,1,1,20.7,19.4,9.064,9.064,0,0,1,11.642,28.458Zm0,0" transform="translate(0 0)" fill="#5b1c26"/>
</svg>
