<svg xmlns="http://www.w3.org/2000/svg" width="42.387" height="43.967" viewBox="0 0 42.387 43.967">
  <g id="muscle" transform="translate(0 0)">
    <path id="Path_2998" data-name="Path 2998" d="M332.465,45.541a.731.731,0,0,0,1.034,0l5.091-5.091a3.742,3.742,0,1,0-5.292-5.292l-.317.316-.316-.316a3.742,3.742,0,1,0-5.292,5.291Zm-4.058-9.35a2.283,2.283,0,0,1,3.225,0l.833.833a.731.731,0,0,0,1.034,0l.833-.833a2.28,2.28,0,1,1,3.225,3.225l-4.575,4.574-4.574-4.574a2.279,2.279,0,0,1,0-3.225Zm0,0" transform="translate(-298.259 -31.139)" fill="#5b1c26"/>
    <path id="Path_2999" data-name="Path 2999" d="M41.575,42.391a20.512,20.512,0,0,1-11.251-2.1.729.729,0,0,0-.554-.07c-.079.021-7.937,2.127-14.265.723-3.945-.877-7.667-3.656-10.384-5.685-.365-.272-.711-.531-1.036-.768a8.3,8.3,0,0,0-1.77-.832c-.279-.107-.661-.253-.744-.3a.286.286,0,0,1-.11-.231V31.427C1.5,30.087,7.116,9.461,7.988,6.837a.565.565,0,0,1,.167-.121l11.122-5.08,3.6,4.681a.644.644,0,0,1-.039.805L19.28,11.106a.633.633,0,0,1-.867.087L16.977,9.868a.736.736,0,0,0-.632-.165.767.767,0,0,0-.53.4,3.987,3.987,0,0,1-2.318.535l-.362-.037a.723.723,0,0,0-.712.372.731.731,0,0,0,.06.8c.309.4.549.719.685.9l.711,12.088a5.32,5.32,0,0,1-.945,2.3.731.731,0,0,0,.22,1.428c.829,0,1.533-1.089,2.1-3.216a8.942,8.942,0,0,1,11.284.093c1.846,1.853,1.961,3.084,1.964,3.138a.731.731,0,0,0,1.462-.016c0-.168-.061-1.61-1.953-3.694a9.323,9.323,0,0,1,6.052-3.731,10.6,10.6,0,0,1,7.132,2.144.731.731,0,0,0,.925-1.132,11.922,11.922,0,0,0-8.22-2.465,10.681,10.681,0,0,0-7,4.213A10.389,10.389,0,0,0,15.268,23.5l-.654-11.117a.726.726,0,0,0-.106-.339,4.8,4.8,0,0,0,2-.62l.942.868a2.1,2.1,0,0,0,2.923-.21L23.924,8.1a2.118,2.118,0,0,0,.119-2.654L20.081.285A.731.731,0,0,0,19.2.066L7.557,5.383a1.777,1.777,0,0,0-.942.963C6.2,7.588,0,29.7,0,31.425v1.7A1.744,1.744,0,0,0,.67,34.5a4.642,4.642,0,0,0,1.123.519,7.925,7.925,0,0,1,1.43.647c.321.235.663.49,1.024.76,2.823,2.109,6.69,5,10.942,5.941,6.053,1.345,13.159-.281,14.682-.665A21.9,21.9,0,0,0,39.5,43.967a20.112,20.112,0,0,0,2.233-.123.731.731,0,1,0-.161-1.452Zm0,0" transform="translate(0)" fill="#5b1c26"/>
    <path id="Path_3000" data-name="Path 3000" d="M426.969,383.615a.731.731,0,0,0-1.457.081c0,.488.361,2.141,5,2.913a.739.739,0,0,0,.121.01.731.731,0,0,0,.119-1.452C427.506,384.627,427.012,383.712,426.969,383.615Zm0,0" transform="translate(-388.971 -350.078)" fill="#5b1c26"/>
    <path id="Path_3001" data-name="Path 3001" d="M117.316,379.588c-9.572,2.05-13.668-4.5-13.837-4.778a.731.731,0,0,0-1.253.754,12.541,12.541,0,0,0,3.7,3.615,14.176,14.176,0,0,0,7.86,2.261,18.3,18.3,0,0,0,3.838-.422.731.731,0,1,0-.306-1.43Zm0,0" transform="translate(-93.352 -342.301)" fill="#5b1c26"/>
  </g>
</svg>
