<svg xmlns="http://www.w3.org/2000/svg" width="41.877" height="41.876" viewBox="0 0 41.877 41.876">
  <g id="running" transform="translate(-0.001 -0.422)">
    <path id="Path_3009" data-name="Path 3009" d="M354.469,11.663a5.621,5.621,0,1,0-5.621-5.621A5.621,5.621,0,0,0,354.469,11.663Zm0-9.836a4.215,4.215,0,1,1-4.215,4.215A4.216,4.216,0,0,1,354.469,1.827Zm0,0" transform="translate(-318.212)" fill="#5b1c26"/>
    <path id="Path_3010" data-name="Path 3010" d="M107.492,36.481a3.091,3.091,0,0,0,2.192-.906l6.339-6.34,4.231,4.232a3.1,3.1,0,0,0,4.382,0l0,0a3.1,3.1,0,0,0,0-4.381l-6.135-6.133a3.512,3.512,0,0,0-4.967,0L105.3,31.19a3.1,3.1,0,0,0,2.195,5.292Zm-1.2-4.3,8.242-8.245a2.108,2.108,0,0,1,2.98,0l6.135,6.137a1.7,1.7,0,0,1,0,2.394l0,0a1.7,1.7,0,0,1-2.4,0l-4.728-4.729a.7.7,0,0,0-.993,0l-6.837,6.834a1.732,1.732,0,0,1-2.4,0,1.7,1.7,0,0,1,0-2.391Zm0,0" transform="translate(-95.222 -19.61)" fill="#5b1c26"/>
    <path id="Path_3011" data-name="Path 3011" d="M313.494,164.641h-7.026v-3.513a.7.7,0,0,0-1.2-.5l-4.215,4.215a.7.7,0,0,0-.206.5v2.81a2.107,2.107,0,0,0,2.108,2.108h10.538a2.81,2.81,0,1,0,0-5.621Zm0,4.215H302.956a.7.7,0,0,1-.7-.7v-2.519l2.81-2.81v2.519a.7.7,0,0,0,.7.7h7.728a1.405,1.405,0,0,1,0,2.81Zm0,0" transform="translate(-274.427 -145.952)" fill="#5b1c26"/>
    <path id="Path_3012" data-name="Path 3012" d="M17.8,275.938l-3.392-3.392a.723.723,0,0,0-.993,0L.908,285.051a3.1,3.1,0,0,0,0,4.382v0a3.1,3.1,0,0,0,4.382,0L17.8,276.931a.7.7,0,0,0,0-.993ZM4.3,288.443a1.7,1.7,0,0,1-2.394,0h0a1.692,1.692,0,0,1,0-2.395L13.91,274.036l2.4,2.4Zm0,0" transform="translate(0 -248.045)" fill="#5b1c26"/>
    <path id="Path_3013" data-name="Path 3013" d="M170.419,220.15a3.1,3.1,0,1,0-4.387,4.387l5.489,5.488-6.656,3.547a3.091,3.091,0,0,0-1.154,4.212l.1.184a3.117,3.117,0,0,0,2.7,1.557,3.038,3.038,0,0,0,1.516-.4l8.665-4.66,1.124-.646a3.513,3.513,0,0,0,.738-5.532Zm7.739,10.9a2.092,2.092,0,0,1-1.04,1.546l-9.775,5.3a1.7,1.7,0,0,1-2.307-.611l-.1-.184a1.691,1.691,0,0,1,.607-2.3l7.476-3.983a.7.7,0,0,0,.166-1.117l-6.159-6.158a1.7,1.7,0,1,1,2.4-2.4l8.137,8.135a2.09,2.09,0,0,1,.595,1.771Zm0,0" transform="translate(-148.964 -199.573)" fill="#5b1c26"/>
  </g>
</svg>
