<svg xmlns="http://www.w3.org/2000/svg" xmlns:xlink="http://www.w3.org/1999/xlink" width="46.289" height="46.289" viewBox="0 0 46.289 46.289"><defs><style>.a{fill:url(#a);}.b{fill:url(#b);}.c{fill:url(#c);}.d{fill:url(#d);}.e{fill:#fff;}.f{fill:#030303;}</style><linearGradient id="a" x1="0.332" y1="0.141" x2="0.585" y2="0.682" gradientUnits="objectBoundingBox"><stop offset="0" stop-color="#fffc00"/><stop offset="1" stop-color="#ffe600"/></linearGradient><linearGradient id="b" x1="0.738" y1="0.628" x2="-0.899" y2="-0.25" gradientUnits="objectBoundingBox"><stop offset="0" stop-color="#ffe600" stop-opacity="0"/><stop offset="1" stop-color="#ffce00"/></linearGradient><linearGradient id="c" x1="0.5" y1="0.27" x2="0.5" y2="0.926" xlink:href="#b"/><linearGradient id="d" x1="0.702" y1="0.924" x2="0.467" y2="0.496" xlink:href="#b"/></defs><g transform="translate(0)"><path class="a" d="M38.009,45.5a139.811,139.811,0,0,1-29.73,0A8.428,8.428,0,0,1,.792,38.008a139.808,139.808,0,0,1,0-29.729A8.428,8.428,0,0,1,8.279.792a139.808,139.808,0,0,1,29.73,0A8.428,8.428,0,0,1,45.5,8.279a139.808,139.808,0,0,1,0,29.729A8.428,8.428,0,0,1,38.009,45.5Zm0,0" transform="translate(0 0.001)"/><path class="b" d="M69.206,36.181a7.479,7.479,0,0,0-6.644-6.644,124.111,124.111,0,0,0-26.381,0,7.48,7.48,0,0,0-6.644,6.644,124.107,124.107,0,0,0,0,26.381,7.479,7.479,0,0,0,6.644,6.644,124.061,124.061,0,0,0,26.381,0,7.479,7.479,0,0,0,6.644-6.644,124.06,124.06,0,0,0,0-26.381Zm0,0" transform="translate(-26.227 -26.227)"/><path class="c" d="M7.672,409.8q.048.48.1.96a8.429,8.429,0,0,0,7.487,7.487,139.811,139.811,0,0,0,29.73,0,8.428,8.428,0,0,0,7.487-7.487q.051-.48.1-.96Zm0,0" transform="translate(-6.978 -372.756)"/><path class="d" d="M124.784,126.527q.53-4.967.7-9.941L108.813,99.91a8.372,8.372,0,0,0-6.086-2.594h-.076l-.528,0a8.123,8.123,0,0,0-7.541,4.865c-.677,1.519-.515,4.1-.385,6.171.015.244.032.5.046.743a1.218,1.218,0,0,1-.594.13,3.416,3.416,0,0,1-1.4-.375,1.129,1.129,0,0,0-.484-.1,1.515,1.515,0,0,0-1.484,1.02c-.061.321.028.749.629,1.174.1.159,2.665,2.73,2.851,2.874-.283.617-2.168,4.4-6.059,5.045a.633.633,0,0,0-.529.66.848.848,0,0,0,.067.284,1.431,1.431,0,0,0,.545.6l14.4,14.395a139.97,139.97,0,0,0,15.12-.791,8.428,8.428,0,0,0,7.487-7.487Zm0,0" transform="translate(-79.288 -88.518)"/><path class="e" d="M105.81,128.873c-.077,0-.153,0-.228-.006h0c-.048,0-.1.006-.149.006a6.539,6.539,0,0,1-4.007-1.581,5.847,5.847,0,0,0-2.319-1.183,7.488,7.488,0,0,0-1.218-.1,8.316,8.316,0,0,0-1.687.191,3.71,3.71,0,0,1-.629.091.4.4,0,0,1-.437-.312c-.07-.239-.121-.47-.17-.693-.125-.575-.215-.929-.456-.966-2.809-.434-3.613-1.026-3.792-1.445a.532.532,0,0,1-.043-.18.316.316,0,0,1,.265-.33c4.318-.711,6.254-5.124,6.335-5.311l.007-.016a1.643,1.643,0,0,0,.154-1.381c-.3-.7-1.263-1.005-1.9-1.208-.156-.049-.3-.1-.422-.142-1.276-.5-1.383-1.023-1.332-1.287a1.206,1.206,0,0,1,1.173-.764.82.82,0,0,1,.35.07,3.718,3.718,0,0,0,1.538.405,1.269,1.269,0,0,0,.919-.293c-.016-.292-.035-.6-.055-.913-.129-2.041-.288-4.578.358-6.026a7.811,7.811,0,0,1,7.252-4.677l.531-.006h.072a7.825,7.825,0,0,1,7.265,4.68c.646,1.449.486,3.987.357,6.027l-.005.089c-.018.284-.035.56-.05.825a1.23,1.23,0,0,0,.838.291h0a3.849,3.849,0,0,0,1.45-.4,1.1,1.1,0,0,1,.451-.089,1.371,1.371,0,0,1,.518.1l.009,0a.953.953,0,0,1,.724.776c.006.3-.222.749-1.343,1.191-.116.046-.265.093-.422.143-.64.2-1.606.51-1.9,1.208a1.644,1.644,0,0,0,.154,1.382l.007.016c.081.187,2.015,4.6,6.335,5.311a.317.317,0,0,1,.265.33.53.53,0,0,1-.044.181c-.178.417-.981,1.008-3.791,1.442-.229.035-.318.334-.455.962-.05.228-.1.452-.17.688a.375.375,0,0,1-.4.3h-.035a3.491,3.491,0,0,1-.629-.079,8.4,8.4,0,0,0-1.688-.179,7.5,7.5,0,0,0-1.218.1,5.835,5.835,0,0,0-2.316,1.182,6.541,6.541,0,0,1-4.009,1.582Zm0,0" transform="translate(-82.477 -91.699)"/><path class="f" d="M102.728,97.949a7.506,7.506,0,0,1,6.977,4.493c.614,1.377.457,3.873.331,5.879-.02.318-.04.626-.055.921l-.007.126.085.094a1.5,1.5,0,0,0,1.064.4h.024a4.149,4.149,0,0,0,1.574-.433.768.768,0,0,1,.316-.059,1.058,1.058,0,0,1,.4.076l.018.007c.3.106.514.3.518.485,0,.1-.075.469-1.143.891-.1.041-.242.085-.4.135-.695.221-1.745.554-2.1,1.386a1.943,1.943,0,0,0,.161,1.645c.126.295,2.11,4.764,6.574,5.5a.211.211,0,0,1-.018.071c-.076.178-.557.794-3.549,1.255-.469.072-.583.6-.717,1.207-.048.218-.1.439-.164.667-.02.069-.024.073-.1.073h-.035a3.3,3.3,0,0,1-.568-.073,8.752,8.752,0,0,0-1.748-.185,7.791,7.791,0,0,0-1.27.107,6.076,6.076,0,0,0-2.45,1.237,6.282,6.282,0,0,1-3.824,1.523c-.073,0-.144,0-.215-.006h-.019l-.019,0c-.041,0-.082,0-.125,0a6.284,6.284,0,0,1-3.824-1.522,6.071,6.071,0,0,0-2.449-1.237,7.793,7.793,0,0,0-1.27-.107,8.622,8.622,0,0,0-1.748.2,3.54,3.54,0,0,1-.568.085c-.108,0-.111-.006-.133-.084-.067-.228-.116-.454-.164-.672-.133-.611-.249-1.138-.717-1.211-2.993-.462-3.473-1.079-3.549-1.257a.206.206,0,0,1-.018-.072c4.464-.736,6.448-5.2,6.574-5.5a1.941,1.941,0,0,0,.162-1.645c-.353-.833-1.4-1.166-2.1-1.387-.159-.05-.3-.094-.4-.135-.9-.356-1.18-.715-1.138-.933.048-.251.482-.506.862-.506a.519.519,0,0,1,.215.04,4.033,4.033,0,0,0,1.673.435,1.544,1.544,0,0,0,1.158-.4l.084-.094-.007-.126c-.016-.294-.035-.6-.055-.92-.126-2.005-.283-4.5.331-5.877a7.5,7.5,0,0,1,6.963-4.49l.534,0h.069m0-.633h-.076l-.528,0a8.123,8.123,0,0,0-7.541,4.865c-.677,1.519-.515,4.1-.385,6.171.015.245.032.5.046.743a1.214,1.214,0,0,1-.594.13,3.411,3.411,0,0,1-1.4-.375,1.135,1.135,0,0,0-.484-.1,1.515,1.515,0,0,0-1.484,1.021c-.084.44.113,1.081,1.527,1.64.128.05.281.1.443.15.584.185,1.467.465,1.706,1.03a1.355,1.355,0,0,1-.147,1.118l-.014.031c-.078.181-1.946,4.441-6.095,5.124a.634.634,0,0,0-.529.66.848.848,0,0,0,.067.284c.311.728,1.625,1.261,4.016,1.633a2.988,2.988,0,0,1,.214.723c.05.23.1.466.175.716a.708.708,0,0,0,.741.539,3.845,3.845,0,0,0,.69-.1,8.073,8.073,0,0,1,1.627-.184,7.143,7.143,0,0,1,1.166.1,5.532,5.532,0,0,1,2.187,1.129,6.89,6.89,0,0,0,4.191,1.639c.051,0,.1,0,.154-.006s.14.006.224.006a6.887,6.887,0,0,0,4.19-1.639A5.535,5.535,0,0,1,109,123.24a7.137,7.137,0,0,1,1.166-.1,8.12,8.12,0,0,1,1.627.173,3.81,3.81,0,0,0,.689.085h.035a.688.688,0,0,0,.706-.529c.072-.244.124-.475.175-.708a2.948,2.948,0,0,1,.213-.72c2.392-.372,3.705-.9,4.016-1.629a.849.849,0,0,0,.069-.286.633.633,0,0,0-.529-.66c-4.151-.684-6.018-4.943-6.1-5.124,0-.01-.009-.02-.014-.031a1.354,1.354,0,0,1-.147-1.118c.239-.564,1.122-.845,1.706-1.03.163-.052.317-.1.443-.15,1.035-.409,1.554-.911,1.543-1.492a1.238,1.238,0,0,0-.93-1.065h0a1.7,1.7,0,0,0-.637-.122,1.407,1.407,0,0,0-.584.118,3.571,3.571,0,0,1-1.316.373,1.174,1.174,0,0,1-.513-.127c.012-.21.025-.427.04-.653l.005-.088c.131-2.074.293-4.656-.384-6.176a8.136,8.136,0,0,0-7.554-4.868Zm0,0" transform="translate(-79.289 -88.518)"/></g></svg>