<svg xmlns="http://www.w3.org/2000/svg" width="30.88" height="46.808" viewBox="0 0 30.88 46.808">
  <g id="stress" transform="translate(-86.906 0)">
    <path id="Path_2994" data-name="Path 2994" d="M145.3,145.625h-.122a7.507,7.507,0,0,0,1.723-4.792v-3.495a7.542,7.542,0,1,0-15.083,0v3.495a7.507,7.507,0,0,0,1.723,4.792h-.122a5.963,5.963,0,0,0-5.957,5.957V164.71h23.795V151.581A5.963,5.963,0,0,0,145.3,145.625Zm-10.733-4.792v-3.495a4.792,4.792,0,1,1,9.585,0v3.495a4.792,4.792,0,1,1-9.585,0ZM148.5,161.96h-18.3V151.581a3.211,3.211,0,0,1,3.207-3.207H145.3a3.211,3.211,0,0,1,3.207,3.207Z" transform="translate(-36.836 -117.901)" fill="#5b1c26"/>
    <path id="Path_2995" data-name="Path 2995" d="M225.577,8.954l2.514,1.112,2.071-4.683L227.526,3.74l1.144-2.65L226.146,0l-2.081,4.821,2.618,1.633Z" transform="translate(-124.59)" fill="#5b1c26"/>
    <path id="Path_2996" data-name="Path 2996" d="M347.068,62.621l-1.014-2.555L341.172,62l.7,3.006-2.55.986.992,2.564,4.776-1.847-.7-3.026Z" transform="translate(-229.282 -54.561)" fill="#5b1c26"/>
    <path id="Path_2997" data-name="Path 2997" d="M92.835,71.6l2.564-.992-1.847-4.776-3.026.7-1.065-2.683L86.906,64.87l1.937,4.881,3.006-.7Z" transform="translate(0 -58.004)" fill="#5b1c26"/>
  </g>
</svg>
