<svg xmlns="http://www.w3.org/2000/svg" xmlns:xlink="http://www.w3.org/1999/xlink" width="46.289" height="46.289" viewBox="0 0 46.289 46.289"><defs><style>.a{fill:url(#a);}.b{fill:url(#b);}.c{fill:url(#c);}.d{fill:url(#d);}.e{fill:#fff;}</style><linearGradient id="a" x1="0.332" y1="0.141" x2="0.585" y2="0.682" gradientUnits="objectBoundingBox"><stop offset="0" stop-color="#00c3ff"/><stop offset="1" stop-color="#00b0ed"/></linearGradient><linearGradient id="b" x1="0.738" y1="0.628" x2="-0.899" y2="-0.25" gradientUnits="objectBoundingBox"><stop offset="0" stop-color="#00b0ed" stop-opacity="0"/><stop offset="1" stop-color="#00a2ce"/></linearGradient><linearGradient id="c" x1="0.5" y1="0.27" x2="0.5" y2="0.926" xlink:href="#b"/><linearGradient id="d" x1="0.946" y1="0.922" x2="0.342" y2="0.273" xlink:href="#b"/></defs><path class="a" d="M38.009,45.5a139.811,139.811,0,0,1-29.73,0A8.428,8.428,0,0,1,.792,38.008a139.808,139.808,0,0,1,0-29.729A8.428,8.428,0,0,1,8.279.792a139.808,139.808,0,0,1,29.73,0A8.428,8.428,0,0,1,45.5,8.279a139.808,139.808,0,0,1,0,29.729A8.428,8.428,0,0,1,38.009,45.5Zm0,0" transform="translate(0 0.001)"/><path class="b" d="M69.206,36.181a7.479,7.479,0,0,0-6.644-6.644,124.111,124.111,0,0,0-26.381,0,7.48,7.48,0,0,0-6.644,6.644,124.107,124.107,0,0,0,0,26.381,7.479,7.479,0,0,0,6.644,6.644,124.061,124.061,0,0,0,26.381,0,7.479,7.479,0,0,0,6.644-6.644,124.06,124.06,0,0,0,0-26.381Zm0,0" transform="translate(-26.227 -26.227)"/><path class="c" d="M7.672,409.8q.048.48.1.96a8.429,8.429,0,0,0,7.487,7.487,139.811,139.811,0,0,0,29.73,0,8.428,8.428,0,0,0,7.487-7.487q.051-.48.1-.96Zm0,0" transform="translate(-6.978 -372.756)"/><path class="d" d="M134.8,136.759l-9.608-9.608a11.466,11.466,0,0,1-2.74,1.146,7.841,7.841,0,0,1-.966.2,5.966,5.966,0,0,0-10.238,4.167c0,.119,0,.237.011.354a5.754,5.754,0,0,0,.108.839,16.344,16.344,0,0,1-10.11-4.043h0L99.246,127.8s-2.359,4.117,1.109,7.242a6.622,6.622,0,0,0,.5.5l.044.048a5.846,5.846,0,0,1-2.617-.727,5.789,5.789,0,0,0,1.937,4.369l1.693,1.707a3.294,3.294,0,0,1-1.483-.141,5.7,5.7,0,0,0,1.708,2.684l2.372,2.384a12.279,12.279,0,0,1-7.192,1.6l14.388,14.058a139.967,139.967,0,0,0,14.823-.792,8.428,8.428,0,0,0,7.487-7.487,140.029,140.029,0,0,0,.782-16.492Zm0,0" transform="translate(-88.523 -115.242)"/><path class="e" d="M126.009,129.468a10.792,10.792,0,0,1-3.078.855l-.013-.072a5.727,5.727,0,0,0,2.271-3.1,11.467,11.467,0,0,1-2.74,1.146,7.908,7.908,0,0,1-.966.2,5.966,5.966,0,0,0-10.238,4.167c0,.119,0,.237.011.354a5.752,5.752,0,0,0,.108.839A16.676,16.676,0,0,1,99.243,127.8s-2.656,4.635,1.81,7.8a6.221,6.221,0,0,1-2.77-.735s-.283,4.466,4.861,5.879a5.645,5.645,0,0,1-2.714.057,5.754,5.754,0,0,0,5.427,4.127,11.888,11.888,0,0,1-8.54,2.542,16.861,16.861,0,0,0,25.862-14.254q0-.174,0-.349c0-.069,0-.137,0-.207,0-.048,0-.1,0-.145a10.549,10.549,0,0,0,2.832-3.049Zm0,0" transform="translate(-88.519 -115.241)"/></svg>