<svg xmlns="http://www.w3.org/2000/svg" xmlns:xlink="http://www.w3.org/1999/xlink" width="46.289" height="46.289" viewBox="0 0 46.289 46.289">
  <defs>
    <linearGradient id="linear-gradient" x1="0.227" y1="-0.025" x2="0.948" y2="1.363" gradientUnits="objectBoundingBox">
      <stop offset="0" stop-color="#fffcf8"/>
      <stop offset="0.188" stop-color="#faf8f6"/>
      <stop offset="0.404" stop-color="#eceef2"/>
      <stop offset="0.635" stop-color="#d5dcea"/>
      <stop offset="0.875" stop-color="#b5c4df"/>
      <stop offset="1" stop-color="#a1b5d8"/>
    </linearGradient>
    <linearGradient id="linear-gradient-2" x1="0.369" y1="0.426" x2="-1.54" y2="-0.648" gradientUnits="objectBoundingBox">
      <stop offset="0" stop-color="#a1b5d8" stop-opacity="0"/>
      <stop offset="0.309" stop-color="#90a2bd" stop-opacity="0.31"/>
      <stop offset="0.755" stop-color="#7c8b9c" stop-opacity="0.757"/>
      <stop offset="1" stop-color="#748290"/>
    </linearGradient>
    <linearGradient id="linear-gradient-3" x1="0.5" y1="0.413" x2="0.5" y2="1.193" xlink:href="#linear-gradient-2"/>
    <linearGradient id="linear-gradient-4" x1="0.583" y1="0.746" x2="0.116" y2="-0.024" xlink:href="#linear-gradient-2"/>
    <linearGradient id="linear-gradient-5" x1="0.5" y1="1" x2="0.5" gradientUnits="objectBoundingBox">
      <stop offset="0" stop-color="#20b038"/>
      <stop offset="1" stop-color="#60d66a"/>
    </linearGradient>
  </defs>
  <g id="_013-whatsapp" data-name="013-whatsapp" transform="translate(0)">
    <path id="Path_2980" data-name="Path 2980" d="M38.009,45.5a139.811,139.811,0,0,1-29.73,0A8.428,8.428,0,0,1,.792,38.008a139.808,139.808,0,0,1,0-29.729A8.428,8.428,0,0,1,8.279.792a139.808,139.808,0,0,1,29.73,0A8.428,8.428,0,0,1,45.5,8.279a139.808,139.808,0,0,1,0,29.729A8.428,8.428,0,0,1,38.009,45.5Zm0,0" transform="translate(0 0.001)" fill="url(#linear-gradient)"/>
    <path id="Path_2981" data-name="Path 2981" d="M69.206,36.181a7.479,7.479,0,0,0-6.644-6.644,124.111,124.111,0,0,0-26.381,0,7.48,7.48,0,0,0-6.644,6.644,124.107,124.107,0,0,0,0,26.381,7.479,7.479,0,0,0,6.644,6.644,124.061,124.061,0,0,0,26.381,0,7.479,7.479,0,0,0,6.644-6.644,124.06,124.06,0,0,0,0-26.381Zm0,0" transform="translate(-26.227 -26.227)" fill="url(#linear-gradient-2)"/>
    <path id="Path_2982" data-name="Path 2982" d="M7.672,409.8q.048.48.1.96a8.429,8.429,0,0,0,7.487,7.487,139.811,139.811,0,0,0,29.73,0,8.428,8.428,0,0,0,7.487-7.487q.051-.48.1-.96Zm0,0" transform="translate(-6.978 -372.756)" fill="url(#linear-gradient-3)"/>
    <path id="Path_2983" data-name="Path 2983" d="M122.426,103.313a13.758,13.758,0,0,0-9.97-3.988A13.844,13.844,0,0,0,100.4,120.468l-2.381,7.367,8.686,8.686a139.813,139.813,0,0,0,20.461-.68,8.428,8.428,0,0,0,7.487-7.487q.643-6.017.764-12.046Zm0,0" transform="translate(-89.161 -90.345)" fill-rule="evenodd" fill="url(#linear-gradient-4)"/>
    <path id="Path_2984" data-name="Path 2984" d="M103.5,130.511l1.948-7.113a13.731,13.731,0,1,1,11.9,6.874h-.006a13.726,13.726,0,0,1-6.561-1.67Zm0,0" transform="translate(-94.139 -93.517)" fill="url(#linear-gradient-5)"/>
    <g id="Group_9751" data-name="Group 9751" transform="translate(8.862 8.798)">
      <path id="Path_2985" data-name="Path 2985" d="M122.425,101.487a14.224,14.224,0,0,0-22.385,17.155l-2.018,7.367,7.539-1.977a14.214,14.214,0,0,0,6.8,1.731h.006a14.223,14.223,0,0,0,10.061-24.276Zm-10.061,21.875h0a11.809,11.809,0,0,1-6.016-1.648l-.432-.256-4.474,1.173,1.194-4.361-.281-.447a11.822,11.822,0,1,1,10.014,5.539Zm0,0" transform="translate(-98.023 -97.317)" fill="#fff" fill-rule="evenodd"/>
      <path id="Path_2986" data-name="Path 2986" d="M190.433,191.489c-.355-.178-2.1-1.038-2.428-1.156s-.563-.178-.8.178-.918,1.156-1.125,1.392-.415.267-.77.089a9.724,9.724,0,0,1-2.858-1.764,10.709,10.709,0,0,1-1.977-2.461c-.207-.356-.022-.548.156-.725.159-.159.355-.415.533-.622a2.441,2.441,0,0,0,.355-.593.655.655,0,0,0-.03-.622c-.089-.178-.779-1.935-1.1-2.638-.266-.592-.547-.6-.8-.614-.207-.009-.444-.008-.681-.008a1.305,1.305,0,0,0-.948.445,3.983,3.983,0,0,0-1.244,2.964,6.915,6.915,0,0,0,1.451,3.675c.178.237,2.459,3.939,6.071,5.364,3,1.184,3.613.948,4.264.889a3.589,3.589,0,0,0,2.4-1.689,2.973,2.973,0,0,0,.207-1.69c-.089-.148-.326-.237-.681-.415Zm0,0" transform="translate(-169.608 -174.294)" fill="#fff" fill-rule="evenodd"/>
    </g>
  </g>
</svg>
