<svg xmlns="http://www.w3.org/2000/svg" width="206.002" height="206.001" viewBox="0 0 206.002 206.001"><defs><style>.a{fill:#954f60;opacity:0.49;}</style></defs><path class="a" d="M10105.086-6200.457a3.459,3.459,0,0,1,3.459-3.457,3.46,3.46,0,0,1,3.457,3.457,3.46,3.46,0,0,1-3.457,3.458A3.46,3.46,0,0,1,10105.086-6200.457Zm-24.885,0a3.458,3.458,0,0,1,3.457-3.457,3.459,3.459,0,0,1,3.457,3.457,3.459,3.459,0,0,1-3.457,3.458A3.459,3.459,0,0,1,10080.2-6200.457Zm-24.886,0a3.459,3.459,0,0,1,3.457-3.457,3.458,3.458,0,0,1,3.457,3.457,3.459,3.459,0,0,1-3.457,3.458A3.459,3.459,0,0,1,10055.315-6200.457Zm-24.887,0a3.46,3.46,0,0,1,3.457-3.457,3.459,3.459,0,0,1,3.459,3.457,3.46,3.46,0,0,1-3.459,3.458A3.46,3.46,0,0,1,10030.429-6200.457Zm-24.886,0a3.459,3.459,0,0,1,3.457-3.457,3.458,3.458,0,0,1,3.458,3.457A3.458,3.458,0,0,1,10009-6197,3.459,3.459,0,0,1,10005.543-6200.457Zm-24.885,0a3.458,3.458,0,0,1,3.457-3.457,3.459,3.459,0,0,1,3.457,3.457,3.459,3.459,0,0,1-3.457,3.458A3.459,3.459,0,0,1,9980.658-6200.457Zm-24.886,0a3.457,3.457,0,0,1,3.456-3.457,3.458,3.458,0,0,1,3.457,3.457,3.458,3.458,0,0,1-3.457,3.458A3.458,3.458,0,0,1,9955.772-6200.457Zm-24.886,0a3.457,3.457,0,0,1,3.456-3.457,3.458,3.458,0,0,1,3.458,3.457,3.459,3.459,0,0,1-3.458,3.458A3.458,3.458,0,0,1,9930.887-6200.457Zm-24.887,0a3.459,3.459,0,0,1,3.456-3.457,3.459,3.459,0,0,1,3.459,3.457,3.459,3.459,0,0,1-3.459,3.458A3.459,3.459,0,0,1,9906-6200.457Zm199.086-24.886a3.459,3.459,0,0,1,3.459-3.457,3.46,3.46,0,0,1,3.457,3.457,3.46,3.46,0,0,1-3.457,3.458A3.46,3.46,0,0,1,10105.086-6225.343Zm-24.885,0a3.458,3.458,0,0,1,3.457-3.457,3.459,3.459,0,0,1,3.457,3.457,3.46,3.46,0,0,1-3.457,3.458A3.459,3.459,0,0,1,10080.2-6225.343Zm-24.886,0a3.459,3.459,0,0,1,3.457-3.457,3.458,3.458,0,0,1,3.457,3.457,3.459,3.459,0,0,1-3.457,3.458A3.46,3.46,0,0,1,10055.315-6225.343Zm-24.887,0a3.46,3.46,0,0,1,3.457-3.457,3.459,3.459,0,0,1,3.459,3.457,3.46,3.46,0,0,1-3.459,3.458A3.46,3.46,0,0,1,10030.429-6225.343Zm-24.886,0a3.459,3.459,0,0,1,3.457-3.457,3.458,3.458,0,0,1,3.458,3.457,3.459,3.459,0,0,1-3.458,3.458A3.46,3.46,0,0,1,10005.543-6225.343Zm-24.885,0a3.458,3.458,0,0,1,3.457-3.457,3.459,3.459,0,0,1,3.457,3.457,3.46,3.46,0,0,1-3.457,3.458A3.459,3.459,0,0,1,9980.658-6225.343Zm-24.886,0a3.457,3.457,0,0,1,3.456-3.457,3.458,3.458,0,0,1,3.457,3.457,3.459,3.459,0,0,1-3.457,3.458A3.458,3.458,0,0,1,9955.772-6225.343Zm-24.886,0a3.457,3.457,0,0,1,3.456-3.457,3.458,3.458,0,0,1,3.458,3.457,3.459,3.459,0,0,1-3.458,3.458A3.458,3.458,0,0,1,9930.887-6225.343Zm-24.887,0a3.459,3.459,0,0,1,3.456-3.457,3.459,3.459,0,0,1,3.459,3.457,3.46,3.46,0,0,1-3.459,3.458A3.46,3.46,0,0,1,9906-6225.343Zm199.086-24.886a3.46,3.46,0,0,1,3.459-3.458,3.46,3.46,0,0,1,3.457,3.458,3.46,3.46,0,0,1-3.457,3.458A3.46,3.46,0,0,1,10105.086-6250.229Zm-24.885,0a3.459,3.459,0,0,1,3.457-3.458,3.46,3.46,0,0,1,3.457,3.458,3.46,3.46,0,0,1-3.457,3.458A3.459,3.459,0,0,1,10080.2-6250.229Zm-24.886,0a3.46,3.46,0,0,1,3.457-3.458,3.459,3.459,0,0,1,3.457,3.458,3.459,3.459,0,0,1-3.457,3.458A3.46,3.46,0,0,1,10055.315-6250.229Zm-24.887,0a3.46,3.46,0,0,1,3.457-3.458,3.46,3.46,0,0,1,3.459,3.458,3.46,3.46,0,0,1-3.459,3.458A3.46,3.46,0,0,1,10030.429-6250.229Zm-24.886,0a3.46,3.46,0,0,1,3.457-3.458,3.459,3.459,0,0,1,3.458,3.458,3.459,3.459,0,0,1-3.458,3.458A3.46,3.46,0,0,1,10005.543-6250.229Zm-24.885,0a3.459,3.459,0,0,1,3.457-3.458,3.46,3.46,0,0,1,3.457,3.458,3.46,3.46,0,0,1-3.457,3.458A3.459,3.459,0,0,1,9980.658-6250.229Zm-24.886,0a3.458,3.458,0,0,1,3.456-3.458,3.458,3.458,0,0,1,3.457,3.458,3.459,3.459,0,0,1-3.457,3.458A3.458,3.458,0,0,1,9955.772-6250.229Zm-24.886,0a3.458,3.458,0,0,1,3.456-3.458,3.459,3.459,0,0,1,3.458,3.458,3.459,3.459,0,0,1-3.458,3.458A3.458,3.458,0,0,1,9930.887-6250.229Zm-24.887,0a3.46,3.46,0,0,1,3.456-3.458,3.46,3.46,0,0,1,3.459,3.458,3.46,3.46,0,0,1-3.459,3.458A3.46,3.46,0,0,1,9906-6250.229Zm199.086-24.885a3.46,3.46,0,0,1,3.459-3.458,3.461,3.461,0,0,1,3.457,3.458,3.459,3.459,0,0,1-3.457,3.456A3.459,3.459,0,0,1,10105.086-6275.113Zm-24.885,0a3.459,3.459,0,0,1,3.457-3.458,3.46,3.46,0,0,1,3.457,3.458,3.459,3.459,0,0,1-3.457,3.456A3.458,3.458,0,0,1,10080.2-6275.113Zm-24.886,0a3.46,3.46,0,0,1,3.457-3.458,3.459,3.459,0,0,1,3.457,3.458,3.458,3.458,0,0,1-3.457,3.456A3.459,3.459,0,0,1,10055.315-6275.113Zm-24.887,0a3.461,3.461,0,0,1,3.457-3.458,3.46,3.46,0,0,1,3.459,3.458,3.459,3.459,0,0,1-3.459,3.456A3.459,3.459,0,0,1,10030.429-6275.113Zm-24.886,0a3.46,3.46,0,0,1,3.457-3.458,3.459,3.459,0,0,1,3.458,3.458,3.458,3.458,0,0,1-3.458,3.456A3.459,3.459,0,0,1,10005.543-6275.113Zm-24.885,0a3.459,3.459,0,0,1,3.457-3.458,3.46,3.46,0,0,1,3.457,3.458,3.459,3.459,0,0,1-3.457,3.456A3.458,3.458,0,0,1,9980.658-6275.113Zm-24.886,0a3.458,3.458,0,0,1,3.456-3.458,3.459,3.459,0,0,1,3.457,3.458,3.458,3.458,0,0,1-3.457,3.456A3.457,3.457,0,0,1,9955.772-6275.113Zm-24.886,0a3.458,3.458,0,0,1,3.456-3.458,3.46,3.46,0,0,1,3.458,3.458,3.458,3.458,0,0,1-3.458,3.456A3.457,3.457,0,0,1,9930.887-6275.113Zm-24.887,0a3.46,3.46,0,0,1,3.456-3.458,3.46,3.46,0,0,1,3.459,3.458,3.459,3.459,0,0,1-3.459,3.456A3.459,3.459,0,0,1,9906-6275.113ZM10105.086-6300a3.46,3.46,0,0,1,3.459-3.458A3.46,3.46,0,0,1,10112-6300a3.46,3.46,0,0,1-3.457,3.458A3.46,3.46,0,0,1,10105.086-6300Zm-24.885,0a3.459,3.459,0,0,1,3.457-3.458,3.46,3.46,0,0,1,3.457,3.458,3.459,3.459,0,0,1-3.457,3.458A3.459,3.459,0,0,1,10080.2-6300Zm-24.886,0a3.46,3.46,0,0,1,3.457-3.458,3.459,3.459,0,0,1,3.457,3.458,3.459,3.459,0,0,1-3.457,3.458A3.459,3.459,0,0,1,10055.315-6300Zm-24.887,0a3.46,3.46,0,0,1,3.457-3.458,3.46,3.46,0,0,1,3.459,3.458,3.46,3.46,0,0,1-3.459,3.458A3.46,3.46,0,0,1,10030.429-6300Zm-24.886,0a3.46,3.46,0,0,1,3.457-3.458,3.459,3.459,0,0,1,3.458,3.458,3.458,3.458,0,0,1-3.458,3.458A3.459,3.459,0,0,1,10005.543-6300Zm-24.885,0a3.459,3.459,0,0,1,3.457-3.458,3.46,3.46,0,0,1,3.457,3.458,3.459,3.459,0,0,1-3.457,3.458A3.459,3.459,0,0,1,9980.658-6300Zm-24.886,0a3.458,3.458,0,0,1,3.456-3.458,3.458,3.458,0,0,1,3.457,3.458,3.458,3.458,0,0,1-3.457,3.458A3.458,3.458,0,0,1,9955.772-6300Zm-24.886,0a3.458,3.458,0,0,1,3.456-3.458A3.459,3.459,0,0,1,9937.8-6300a3.459,3.459,0,0,1-3.458,3.458A3.458,3.458,0,0,1,9930.887-6300ZM9906-6300a3.46,3.46,0,0,1,3.456-3.458,3.46,3.46,0,0,1,3.459,3.458,3.459,3.459,0,0,1-3.459,3.458A3.459,3.459,0,0,1,9906-6300Zm199.086-24.886a3.46,3.46,0,0,1,3.459-3.457,3.46,3.46,0,0,1,3.457,3.457,3.46,3.46,0,0,1-3.457,3.458A3.46,3.46,0,0,1,10105.086-6324.886Zm-24.885,0a3.459,3.459,0,0,1,3.457-3.457,3.459,3.459,0,0,1,3.457,3.457,3.459,3.459,0,0,1-3.457,3.458A3.458,3.458,0,0,1,10080.2-6324.886Zm-24.886,0a3.459,3.459,0,0,1,3.457-3.457,3.459,3.459,0,0,1,3.457,3.457,3.458,3.458,0,0,1-3.457,3.458A3.459,3.459,0,0,1,10055.315-6324.886Zm-24.887,0a3.46,3.46,0,0,1,3.457-3.457,3.46,3.46,0,0,1,3.459,3.457,3.46,3.46,0,0,1-3.459,3.458A3.46,3.46,0,0,1,10030.429-6324.886Zm-24.886,0a3.459,3.459,0,0,1,3.457-3.457,3.458,3.458,0,0,1,3.458,3.457,3.458,3.458,0,0,1-3.458,3.458A3.459,3.459,0,0,1,10005.543-6324.886Zm-24.885,0a3.459,3.459,0,0,1,3.457-3.457,3.459,3.459,0,0,1,3.457,3.457,3.459,3.459,0,0,1-3.457,3.458A3.458,3.458,0,0,1,9980.658-6324.886Zm-24.886,0a3.458,3.458,0,0,1,3.456-3.457,3.458,3.458,0,0,1,3.457,3.457,3.458,3.458,0,0,1-3.457,3.458A3.458,3.458,0,0,1,9955.772-6324.886Zm-24.886,0a3.458,3.458,0,0,1,3.456-3.457,3.459,3.459,0,0,1,3.458,3.457,3.459,3.459,0,0,1-3.458,3.458A3.458,3.458,0,0,1,9930.887-6324.886Zm-24.887,0a3.459,3.459,0,0,1,3.456-3.457,3.459,3.459,0,0,1,3.459,3.457,3.459,3.459,0,0,1-3.459,3.458A3.459,3.459,0,0,1,9906-6324.886Zm199.086-24.886a3.459,3.459,0,0,1,3.459-3.457,3.46,3.46,0,0,1,3.457,3.457,3.461,3.461,0,0,1-3.457,3.458A3.46,3.46,0,0,1,10105.086-6349.771Zm-24.885,0a3.458,3.458,0,0,1,3.457-3.457,3.459,3.459,0,0,1,3.457,3.457,3.46,3.46,0,0,1-3.457,3.458A3.459,3.459,0,0,1,10080.2-6349.771Zm-24.886,0a3.459,3.459,0,0,1,3.457-3.457,3.458,3.458,0,0,1,3.457,3.457,3.459,3.459,0,0,1-3.457,3.458A3.46,3.46,0,0,1,10055.315-6349.771Zm-24.887,0a3.46,3.46,0,0,1,3.457-3.457,3.459,3.459,0,0,1,3.459,3.457,3.46,3.46,0,0,1-3.459,3.458A3.461,3.461,0,0,1,10030.429-6349.771Zm-24.886,0a3.459,3.459,0,0,1,3.457-3.457,3.458,3.458,0,0,1,3.458,3.457,3.459,3.459,0,0,1-3.458,3.458A3.46,3.46,0,0,1,10005.543-6349.771Zm-24.885,0a3.458,3.458,0,0,1,3.457-3.457,3.459,3.459,0,0,1,3.457,3.457,3.46,3.46,0,0,1-3.457,3.458A3.459,3.459,0,0,1,9980.658-6349.771Zm-24.886,0a3.458,3.458,0,0,1,3.456-3.457,3.458,3.458,0,0,1,3.457,3.457,3.459,3.459,0,0,1-3.457,3.458A3.458,3.458,0,0,1,9955.772-6349.771Zm-24.886,0a3.458,3.458,0,0,1,3.456-3.457,3.459,3.459,0,0,1,3.458,3.457,3.46,3.46,0,0,1-3.458,3.458A3.458,3.458,0,0,1,9930.887-6349.771Zm-24.887,0a3.459,3.459,0,0,1,3.456-3.457,3.459,3.459,0,0,1,3.459,3.457,3.46,3.46,0,0,1-3.459,3.458A3.46,3.46,0,0,1,9906-6349.771Zm199.086-24.886a3.459,3.459,0,0,1,3.459-3.457,3.46,3.46,0,0,1,3.457,3.457,3.457,3.457,0,0,1-3.457,3.454A3.457,3.457,0,0,1,10105.086-6374.657Zm-24.885,0a3.458,3.458,0,0,1,3.457-3.457,3.459,3.459,0,0,1,3.457,3.457,3.456,3.456,0,0,1-3.457,3.454A3.456,3.456,0,0,1,10080.2-6374.657Zm-24.886,0a3.459,3.459,0,0,1,3.457-3.457,3.458,3.458,0,0,1,3.457,3.457,3.456,3.456,0,0,1-3.457,3.454A3.456,3.456,0,0,1,10055.315-6374.657Zm-24.887,0a3.46,3.46,0,0,1,3.457-3.457,3.459,3.459,0,0,1,3.459,3.457,3.457,3.457,0,0,1-3.459,3.454A3.457,3.457,0,0,1,10030.429-6374.657Zm-24.886,0a3.459,3.459,0,0,1,3.457-3.457,3.458,3.458,0,0,1,3.458,3.457,3.455,3.455,0,0,1-3.458,3.454A3.456,3.456,0,0,1,10005.543-6374.657Zm-24.885,0a3.458,3.458,0,0,1,3.457-3.457,3.459,3.459,0,0,1,3.457,3.457,3.456,3.456,0,0,1-3.457,3.454A3.456,3.456,0,0,1,9980.658-6374.657Zm-24.886,0a3.458,3.458,0,0,1,3.456-3.457,3.458,3.458,0,0,1,3.457,3.457,3.455,3.455,0,0,1-3.457,3.454A3.455,3.455,0,0,1,9955.772-6374.657Zm-24.886,0a3.458,3.458,0,0,1,3.456-3.457,3.459,3.459,0,0,1,3.458,3.457,3.456,3.456,0,0,1-3.458,3.454A3.455,3.455,0,0,1,9930.887-6374.657Zm-24.887,0a3.459,3.459,0,0,1,3.456-3.457,3.459,3.459,0,0,1,3.459,3.457,3.456,3.456,0,0,1-3.459,3.454A3.456,3.456,0,0,1,9906-6374.657Zm199.086-24.885a3.46,3.46,0,0,1,3.459-3.458,3.46,3.46,0,0,1,3.457,3.458,3.458,3.458,0,0,1-3.457,3.455A3.457,3.457,0,0,1,10105.086-6399.542Zm-24.885,0a3.458,3.458,0,0,1,3.457-3.458,3.459,3.459,0,0,1,3.457,3.458,3.457,3.457,0,0,1-3.457,3.455A3.456,3.456,0,0,1,10080.2-6399.542Zm-24.886,0a3.459,3.459,0,0,1,3.457-3.458,3.458,3.458,0,0,1,3.457,3.458,3.456,3.456,0,0,1-3.457,3.455A3.457,3.457,0,0,1,10055.315-6399.542Zm-24.887,0a3.46,3.46,0,0,1,3.457-3.458,3.46,3.46,0,0,1,3.459,3.458,3.457,3.457,0,0,1-3.459,3.455A3.458,3.458,0,0,1,10030.429-6399.542Zm-24.886,0A3.459,3.459,0,0,1,10009-6403a3.458,3.458,0,0,1,3.458,3.458,3.456,3.456,0,0,1-3.458,3.455A3.457,3.457,0,0,1,10005.543-6399.542Zm-24.885,0a3.458,3.458,0,0,1,3.457-3.458,3.459,3.459,0,0,1,3.457,3.458,3.457,3.457,0,0,1-3.457,3.455A3.456,3.456,0,0,1,9980.658-6399.542Zm-24.886,0a3.458,3.458,0,0,1,3.456-3.458,3.458,3.458,0,0,1,3.457,3.458,3.456,3.456,0,0,1-3.457,3.455A3.455,3.455,0,0,1,9955.772-6399.542Zm-24.886,0a3.458,3.458,0,0,1,3.456-3.458,3.459,3.459,0,0,1,3.458,3.458,3.457,3.457,0,0,1-3.458,3.455A3.455,3.455,0,0,1,9930.887-6399.542Zm-24.887,0a3.459,3.459,0,0,1,3.456-3.458,3.459,3.459,0,0,1,3.459,3.458,3.457,3.457,0,0,1-3.459,3.455A3.457,3.457,0,0,1,9906-6399.542Z" transform="translate(-9906 6403)"/></svg>